<svg xmlns="http://www.w3.org/2000/svg" width="600" height="400" viewBox="0 0 600 400">
  <rect width="600" height="400" fill="#e8d5b7"/>
  <rect x="0" y="300" width="600" height="100" fill="#c4a882"/>
  <!-- Person 1 -->
  <circle cx="180" cy="140" r="35" fill="#f5c5a3"/>
  <rect x="150" y="175" width="60" height="130" rx="8" fill="#4a6fa5"/>
  <rect x="130" y="180" width="30" height="80" rx="6" fill="#4a6fa5"/>
  <rect x="210" y="180" width="30" height="80" rx="6" fill="#4a6fa5"/>
  <rect x="155" y="300" width="22" height="50" rx="5" fill="#2c3e50"/>
  <rect x="185" y="300" width="22" height="50" rx="5" fill="#2c3e50"/>
  <!-- Person 2 -->
  <circle cx="400" cy="130" r="40" fill="#c68642"/>
  <rect x="368" y="168" width="64" height="140" rx="8" fill="#e74c3c"/>
  <rect x="345" y="175" width="32" height="85" rx="6" fill="#e74c3c"/>
  <rect x="415" y="175" width="32" height="85" rx="6" fill="#e74c3c"/>
  <rect x="374" y="300" width="24" height="55" rx="5" fill="#1a252f"/>
  <rect x="406" y="300" width="24" height="55" rx="5" fill="#1a252f"/>
  <text x="300" y="395" text-anchor="middle" font-family="Arial,sans-serif" font-size="13" fill="#888">Image 009</text>
</svg>
